<?xml version="1.0" encoding="UTF-8" standalone="no"?>
<svg
   xmlns:dc="http://purl.org/dc/elements/1.1/"
   xmlns:cc="http://creativecommons.org/ns#"
   xmlns:rdf="http://www.w3.org/1999/02/22-rdf-syntax-ns#"
   xmlns:svg="http://www.w3.org/2000/svg"
   xmlns="http://www.w3.org/2000/svg"
   id="svg8"
   version="1.1"
   viewBox="0 0 175.86719 50.000384"
   height="50.000385mm"
   width="175.86719mm">
  <defs
     id="defs2" />
  <metadata
     id="metadata5">
    <rdf:RDF>
      <cc:Work
         rdf:about="">
        <dc:format>image/svg+xml</dc:format>
        <dc:type
           rdf:resource="http://purl.org/dc/dcmitype/StillImage" />
        <dc:title></dc:title>
      </cc:Work>
    </rdf:RDF>
  </metadata>
  <g
     transform="translate(-40.814757,-67.327512)"
     id="layer1">
    <g
       id="text830"
       style="font-style:normal;font-variant:normal;font-weight:normal;font-stretch:normal;font-size:50.79999924px;line-height:1.25;font-family:'Sunset Boulevard';-inkscape-font-specification:'Sunset Boulevard, Normal';font-variant-ligatures:normal;font-variant-caps:normal;font-variant-numeric:normal;font-feature-settings:normal;text-align:start;letter-spacing:0px;word-spacing:0px;writing-mode:lr-tb;text-anchor:start;fill:#000000;fill-opacity:1;stroke:none;stroke-width:0.26458332"
       aria-label="BOLETOX">
      <path
         id="path998"
         style="font-style:normal;font-variant:normal;font-weight:normal;font-stretch:normal;font-size:50.79999924px;font-family:'Sunset Boulevard';-inkscape-font-specification:'Sunset Boulevard, Normal';font-variant-ligatures:normal;font-variant-caps:normal;font-variant-numeric:normal;font-feature-settings:normal;text-align:start;writing-mode:lr-tb;text-anchor:start;stroke-width:0.26458332"
         d="m 93.253815,79.319976 h 9.078515 q 3.27422,0 4.51445,3.894336 v 7.193359 q 0,3.100586 -2.75332,4.39043 2.75332,1.686718 2.75332,4.415234 v 7.664645 q 0,3.37344 -3.64629,4.66328 h -9.946675 q -0.248047,0 -0.248047,-0.24804 V 79.568023 q 0.04961,-0.248047 0.248047,-0.248047 z m 13.965035,3.274219 h 0.12403 q 1.90996,1.612304 1.90996,2.133203 -0.17363,0 -2.03399,-2.00918 z m -9.921871,0.868164 v 9.326562 h 3.894331 q 1.38907,0 1.38907,-1.637109 v -6.052344 q 0,-1.637109 -1.63711,-1.637109 z m 10.045901,0.396875 h 0.14883 q 2.62929,2.257226 2.62929,3.150195 h -0.12402 q -0.17363,0 -2.6541,-2.654102 z m -9.301761,0.248046 q 0.173633,0 2.505271,2.505274 v 0.396875 q 0,0.248047 -0.24804,0.248047 l -2.505278,-2.778125 v -0.124024 q 0.02481,-0.248047 0.248047,-0.248047 z m 1.016992,0 h 0.496094 q 0.148828,0 2.381255,2.38125 0,0.248047 -0.24805,0.248047 h -0.12403 q -0.17363,0 -2.505269,-2.505273 z m 1.488279,0 h 0.64492 q 0.17364,0 0.74415,0.744141 v 0.644922 h -0.12403 q -0.17363,0 -1.26504,-1.265039 z m 7.06934,1.265039 2.50527,2.629297 v 0.372071 q 0,0.272851 -0.24804,0.272851 l -2.53008,-2.654101 v -0.372071 q 0.0496,-0.248047 0.27285,-0.248047 z m -9.574611,0.124024 2.505271,2.629297 v 0.644922 h -0.12402 q -0.14883,0 -2.629298,-2.654102 v -0.37207 q 0.02481,-0.248047 0.248047,-0.248047 z m 9.574611,1.364258 2.50527,2.654101 v 0.620117 h -0.12402 q -0.17363,0 -2.6541,-2.629296 v -0.372071 q 0.0496,-0.272851 0.27285,-0.272851 z m -9.822658,0.272851 h 0.124024 q 0.173633,0 2.629294,2.629297 v 0.496094 h -0.12402 q -0.14883,0 -2.629298,-2.629297 z m 9.549808,1.364258 h 0.14883 q 0.14882,0 2.62929,2.654102 v 0.496093 h -0.12402 q -0.17363,0 -2.6541,-2.629297 z m -9.549808,0.148828 h 0.124024 q 0.173633,0 2.629294,2.629297 v 0.37207 q 0,0.248047 -0.24804,0.248047 l -2.505278,-2.629297 z m 9.822658,1.364258 2.50527,2.654101 v 0.372071 q 0,0.248047 -0.24804,0.248047 l -2.53008,-2.629297 v -0.396875 q 0.0496,-0.248047 0.27285,-0.248047 z m -9.574611,0.124023 1.885156,2.033985 -0.248046,0.124023 h -0.372071 q -0.173632,0 -1.513086,-1.513086 v -0.37207 q 0.02481,-0.272852 0.248047,-0.272852 z m 9.450591,1.389063 q 0.14882,0 2.62929,2.654101 v 0.248047 q 0,0.248047 -0.24804,0.248047 -0.17364,0 -2.65411,-2.629297 v -0.272851 q 0.0496,-0.248047 0.27286,-0.248047 z m -9.698638,0.248047 h 0.124024 q 0.173633,0 0.37207,0.396875 v 0.124023 h -0.248047 q -0.248047,0 -0.248047,-0.248047 z m 9.053708,1.016992 h 0.24805 q 0.17363,0 2.6541,2.654101 v 0.372071 h -0.24805 q -0.17363,0 -2.6541,-2.654102 z m -0.37207,0.868164 q 0.17364,0 2.77813,2.778125 v 0.124023 q 0,0.248047 -0.27285,0.248047 h -0.12403 q -0.14883,0 -2.75332,-2.75332 0,-0.198438 0.37207,-0.396875 z m -0.74414,0.768945 2.75332,2.902149 q 0,0.248047 -0.24804,0.248047 h -0.12403 q -0.17363,0 -2.77812,-2.778125 0,-0.173633 0.39687,-0.372071 z m -8.433591,2.505274 v 10.467576 h 3.894331 q 1.38907,0 1.38907,-1.63711 v -6.796482 q 0,-2.033984 -1.63711,-2.033984 z m 1.240234,0.644922 h 0.520898 q 0.148829,0 2.505269,2.505274 v 0.12402 h -0.49609 q -0.17363,0 -2.530077,-2.505271 z m 1.513087,0 h 0.64492 q 0.14883,0 1.24024,1.265039 v 0.620117 h -0.12403 q -0.17363,0 -1.76113,-1.761133 z m 7.16855,0 q 2.40606,2.306835 2.40606,3.026174 -2.40606,-2.058792 -2.40606,-2.778128 z m -9.177731,0.37207 2.505271,2.654104 v 0.37207 q 0,0.24804 -0.24804,0.24804 l -2.505278,-2.654097 v -0.37207 q 0.02481,-0.248047 0.248047,-0.248047 z m 9.574611,1.389062 2.50527,2.629302 v 0.64492 h -0.12402 q -0.17363,0 -2.6541,-2.654104 v -0.372071 q 0.0496,-0.248047 0.27285,-0.248047 z m -9.574611,0.124024 2.505271,2.629298 v 0.64492 h -0.12402 q -0.14883,0 -2.629298,-2.6541 v -0.372071 q 0.02481,-0.248047 0.248047,-0.248047 z m 9.301761,1.513088 h 0.14883 q 0.14882,0 2.62929,2.62929 v 0.5209 h -0.12402 q -0.17363,0 -2.6541,-2.6541 z m -9.549808,0.12402 h 0.124024 q 0.173633,0 2.629294,2.6293 v 0.5209 h -0.12402 q -0.14883,0 -2.629298,-2.65411 z m 9.549808,1.38906 h 0.14883 q 0.14882,0 2.62929,2.6293 v 0.5209 h -0.12402 q -0.17363,0 -2.6541,-2.6541 z m -9.301761,0.12403 2.505271,2.62929 v 0.39688 q 0,0.24805 -0.24804,0.24805 l -2.505278,-2.65411 v -0.37207 q 0.02481,-0.24804 0.248047,-0.24804 z m 9.574611,1.38906 2.50527,2.6293 v 0.64492 h -0.12402 q -0.17363,0 -2.6541,-2.6541 v -0.37207 q 0.0496,-0.24805 0.27285,-0.24805 z m -9.574611,0.12402 2.505271,2.6293 -0.24804,0.12402 h -0.372075 q -0.148828,0 -2.133203,-2.1332 v -0.37207 q 0.02481,-0.24805 0.248047,-0.24805 z m 9.301761,1.51309 h 0.14883 q 0.14882,0 2.62929,2.6293 v 0.49609 h -0.12402 q -0.17363,0 -2.6541,-2.6293 z m -9.549808,0.12402 h 0.124024 q 0.148828,0 1.016992,0.99219 v 0.12402 H 98.41319 q -0.173633,0 -0.620118,-0.62011 z m 9.549808,1.36426 h 0.14883 q 0.14882,0 2.62929,2.6541 v 0.37207 q 0,0.24805 -0.24804,0.24805 l -2.53008,-2.6293 z m -0.24805,1.38906 h 0.24805 q 0.17363,0 2.6541,2.6541 v 0.24805 q 0,0.24805 -0.24805,0.24805 -0.17363,0 -2.6541,-2.6293 z m -0.37207,1.14102 h 0.12402 q 0.17364,0 2.6541,2.6541 v 0.37207 h -0.24804 q -0.17363,0 -2.77813,-2.77812 0.0496,-0.24805 0.24805,-0.24805 z m -0.62012,0.74414 q 0.17364,0 2.75332,2.77812 v 0.12403 q 0,0.24804 -0.24804,0.24804 h -0.12403 q -0.17363,0 -2.75332,-2.75332 0,-0.19843 0.37207,-0.39687 z m -0.64492,0.76894 2.6541,2.75332 q 0,0.27286 -0.24804,0.27286 h -0.24805 q -0.17363,0 -2.6541,-2.65411 v -0.24804 q 0.0744,0 0.49609,-0.12403 z m -1.51309,0.62012 h 0.39688 q 0.14883,0 2.6293,2.6541 v 0.24805 h -0.37207 q -0.17364,0 -2.65411,-2.6541 z m -0.74414,0.24805 2.53008,2.6541 v 0.12402 h -0.64492 q -0.17363,0 -2.50527,-2.50527 v -0.14883 z m -9.450582,0.12402 h 0.148829 q 0.148828,0 2.505273,2.53008 v 0.12402 h -0.124024 q -0.173632,0 -2.530078,-2.50527 z m 1.141016,0 h 0.496094 q 0.173633,0 2.530078,2.53008 v 0.12402 h -0.496094 q -0.173633,0 -2.530078,-2.50527 z m 1.513086,0 h 0.620117 q 0.173633,0 2.530078,2.53008 v 0.12402 h -0.620117 q -0.173633,0 -2.530078,-2.50527 z m 1.513086,0 h 0.620117 q 0.173633,0 2.530077,2.53008 v 0.12402 h -0.64492 q -0.14883,0 -2.505274,-2.50527 z m 1.637109,0 h 0.496095 q 0.17363,0 2.53008,2.53008 v 0.12402 h -0.5209 q -0.14883,0 -2.505275,-2.50527 z m 1.513085,0 h 0.62012 q 0.17363,0 2.53008,2.53008 v 0.12402 h -0.64493 q -0.14882,0 -2.50527,-2.50527 z" />
      <path
         id="path1000"
         style="font-style:normal;font-variant:normal;font-weight:normal;font-stretch:normal;font-size:50.79999924px;font-family:'Sunset Boulevard';-inkscape-font-specification:'Sunset Boulevard, Normal';font-variant-ligatures:normal;font-variant-caps:normal;font-variant-numeric:normal;font-feature-settings:normal;text-align:start;writing-mode:lr-tb;text-anchor:start;stroke-width:0.26458332"
         d="m 117.95928,79.319976 h 3.52227 q 3.52226,0 4.7625,3.249414 0.24805,0.496094 0.24805,1.389062 v 22.944338 q 0,3.59668 -4.14239,4.66328 h -5.01054 q -3.29903,0 -4.63848,-3.64629 V 83.462359 q 0,-2.728516 3.64629,-4.01836 0.81855,-0.124023 1.6123,-0.124023 z m 8.90489,3.398242 h 0.12402 q 2.25723,1.909961 2.25723,2.75332 -2.38125,-2.058789 -2.38125,-2.75332 z m -9.89707,2.108398 v 21.208004 q 0.24804,1.38907 2.75332,1.38907 2.50527,0 2.50527,-1.63711 V 85.223491 q 0,-1.190625 -0.86816,-1.637109 h -3.1502 q -1.24023,0.198437 -1.24023,1.240234 z m 1.51308,-0.74414 h 0.4961 q 0.17363,0 2.62929,2.629297 l -0.24804,0.124023 h -0.24805 q -2.6293,-2.406055 -2.6293,-2.505273 z m 1.48828,0 h 0.5209 q 1.0666,0.768945 1.11621,1.016992 v 0.620117 h -0.12402 q -0.17363,0 -1.51309,-1.513086 z m 7.29258,0 2.50527,2.629297 v 0.644921 h -0.12402 q -0.17363,0 -2.6541,-2.654101 v -0.37207 q 0.0496,-0.248047 0.27285,-0.248047 z m -9.67383,0.37207 h 0.24805 q 0.17363,0 2.6541,2.654102 v 0.248046 q 0,0.248047 -0.27285,0.248047 -0.14883,0 -2.75332,-2.778125 0.12402,-0.223242 0.12402,-0.37207 z m 0.12403,1.265039 2.50527,2.629297 v 0.620117 h -0.12402 q -0.14883,0 -2.6293,-2.629297 v -0.37207 q 0.0496,-0.248047 0.24805,-0.248047 z m 9.27695,0 h 0.14883 q 0.14883,0 2.62929,2.629297 v 0.496094 h -0.12402 q -0.17363,0 -2.6541,-2.629297 z m 0.27285,1.513086 2.50527,2.629297 v 0.37207 q 0,0.248047 -0.24804,0.248047 l -2.53008,-2.629297 v -0.37207 q 0.0496,-0.248047 0.27285,-0.248047 z m -9.79785,0.124023 h 0.12402 q 0.17364,0 2.6293,2.629297 v 0.496094 h -0.12402 q -0.14883,0 -2.6293,-2.629297 z m 9.79785,1.364258 2.50527,2.629297 v 0.644922 h -0.12402 q -0.17363,0 -2.6541,-2.629297 v -0.396875 q 0.0496,-0.248047 0.27285,-0.248047 z m -9.5498,0.124024 2.50527,2.629297 v 0.396875 q 0,0.248046 -0.24805,0.248046 l -2.50527,-2.629296 v -0.396875 q 0.0496,-0.248047 0.24805,-0.248047 z m 0,1.513086 2.50527,2.629296 v 0.620118 h -0.12402 q -0.14883,0 -2.6293,-2.629297 v -0.372071 q 0.0496,-0.248046 0.24805,-0.248046 z m 9.27695,0 h 0.14883 q 0.14883,0 2.62929,2.629296 v 0.496094 h -0.12402 q -0.17363,0 -2.6541,-2.629297 z m 0.27285,1.513086 2.50527,2.629296 v 0.372071 q 0,0.248047 -0.24804,0.248047 l -2.53008,-2.629297 v -0.372071 q 0.0496,-0.248046 0.27285,-0.248046 z m -9.79785,0.124023 h 0.12402 q 0.17364,0 2.6293,2.629297 v 0.496094 h -0.12402 q -0.14883,0 -2.6293,-2.629297 z m 9.79785,1.364258 2.50527,2.654101 v 0.620117 h -0.12402 q -0.17363,0 -2.6541,-2.629296 v -0.396875 q 0.0496,-0.248047 0.27285,-0.248047 z m -9.5498,0.124023 2.50527,2.654102 v 0.620117 h -0.12402 q -0.14883,0 -2.6293,-2.629297 v -0.37207 q 0.0496,-0.272852 0.24805,-0.272852 z m 9.27695,1.513086 h 0.14883 q 0.14883,0 2.62929,2.629297 v 0.496094 h -0.12402 q -0.17363,0 -2.6541,-2.629297 z m -9.525,0.124024 h 0.12402 q 0.17364,0 2.6293,2.629296 v 0.520899 h -0.12402 q -0.14883,0 -2.6293,-2.654102 z m 9.79785,1.389062 2.50527,2.629297 v 0.620117 h -0.12402 q -0.17363,0 -2.6541,-2.629297 v -0.37207 q 0.0496,-0.248047 0.27285,-0.248047 z m -9.79785,0.124023 h 0.12402 q 0.17364,0 2.6293,2.629297 v 0.496094 h -0.12402 q -0.14883,0 -2.6293,-2.629297 z m 9.79785,1.364258 2.50527,2.654105 v 0.62011 h -0.12402 q -0.17363,0 -2.6541,-2.629293 v -0.37207 q 0.0496,-0.272852 0.27285,-0.272852 z m -9.5498,0.124024 2.50527,2.654101 v 0.62012 h -0.12402 q -0.14883,0 -2.6293,-2.629299 V 98.39478 q 0.0496,-0.272851 0.24805,-0.272851 z m 9.27695,1.513086 h 0.14883 q 0.14883,0 2.62929,2.629295 v 0.5209 h -0.12402 q -0.17363,0 -2.6541,-2.6541 z m -9.525,0.124023 h 0.12402 q 0.17364,0 2.6293,2.629292 v 0.5209 h -0.12402 q -0.14883,0 -2.6293,-2.6541 z m 9.79785,1.389062 2.50527,2.6293 v 0.62011 h -0.12402 q -0.17363,0 -2.6541,-2.62929 v -0.37207 q 0.0496,-0.24805 0.27285,-0.24805 z m -9.79785,0.12402 h 0.12402 q 0.17364,0 2.6293,2.6293 v 0.49609 h -0.12402 q -2.6293,-2.43085 -2.6293,-2.62929 z m 0.24805,1.51309 2.50527,2.6293 v 0.62011 h -0.12402 q -0.14883,0 -2.6293,-2.62929 v -0.37207 q 0.0496,-0.24805 0.24805,-0.24805 z m 9.27695,0 h 0.14883 q 0.14883,0 2.62929,2.6293 v 0.49609 h -0.12402 q -0.17363,0 -2.6541,-2.6293 z m 0,1.48828 h 0.14883 q 0.14883,0 2.62929,2.6293 v 0.5209 h -0.12402 q -0.17363,0 -2.6541,-2.65411 z m -9.525,0.12402 h 0.12402 q 0.17364,0 2.25723,2.25723 v 0.12402 h -0.49609 q -0.14883,0 -1.88516,-1.86035 z m 9.79785,1.38907 2.50527,2.62929 v 0.62012 h -0.12402 q -0.17363,0 -2.6541,-2.6293 v -0.37207 q 0.0496,-0.24804 0.27285,-0.24804 z m -9.5498,0.12402 0.64492,0.74414 v 0.12402 h -0.27285 q -0.44649,-0.22324 -0.62012,-0.74414 z m 9.27695,1.51309 h 0.14883 q 0.14883,0 2.62929,2.62929 v 0.4961 h -0.12402 q -0.17363,0 -2.6541,-2.6293 z m -0.12402,1.24023 q 0.17363,0 2.6541,2.6293 v 0.5209 h -0.27285 q -0.0744,0 -2.6293,-2.77813 v -0.12402 q 0.0496,-0.24805 0.24805,-0.24805 z m -0.4961,1.01699 q 0.17363,0 2.75332,2.75332 -0.12402,0.24805 -0.12402,0.37207 h -0.24805 q -0.17363,0 -2.75332,-2.75332 0,-0.17363 0.37207,-0.37207 z m -0.74414,0.86817 q 0.17363,0 2.75332,2.75332 v 0.12402 q 0,0.24805 -0.24805,0.24805 -0.17363,0 -2.75332,-2.75332 v -0.12403 q 0.0248,-0.24804 0.24805,-0.24804 z m -1.01699,0.74414 h 0.24805 q 0.17363,0 2.6541,2.6541 v 0.24805 l -0.5209,0.12402 -2.6293,-2.75332 q 0.0496,-0.27285 0.24805,-0.27285 z m -1.24024,0.5209 h 0.4961 q 0.17363,0 2.6293,2.62929 0,0.24805 -0.24805,0.24805 H 125.996 q -0.17363,0 -2.6293,-2.6293 z m -7.4166,0.12402 h 0.27285 q 0.14883,0 2.25723,2.25723 h -0.27285 q -0.57051,-0.27286 -2.25723,-2.13321 z m 1.38907,0.12402 h 0.49609 q 0.17363,0 2.6541,2.6293 v 0.12402 h -0.5209 q -0.14883,0 -2.62929,-2.62929 z m 1.76113,0 h 0.37207 q 0.17363,0 2.6293,2.6293 l -0.24805,0.12402 h -0.37207 q -0.17363,0 -2.6293,-2.62929 z m 1.51308,0 h 0.37207 q 0.14883,0 2.6293,2.6293 v 0.12402 h -0.62012 q -0.17363,0 -2.6541,-2.62929 z m 1.36426,0 h 0.4961 q 0.17363,0 2.6541,2.6293 v 0.12402 h -0.5209 q -0.14883,0 -2.6293,-2.62929 z" />
      <path
         id="path1002"
         style="font-style:normal;font-variant:normal;font-weight:normal;font-stretch:normal;font-size:50.79999924px;font-family:'Sunset Boulevard';-inkscape-font-specification:'Sunset Boulevard, Normal';font-variant-ligatures:normal;font-variant-caps:normal;font-variant-numeric:normal;font-feature-settings:normal;text-align:start;writing-mode:lr-tb;text-anchor:start;stroke-width:0.26458332"
         d="m 137.95186,80.064116 2.50527,2.654102 v 0.620117 h -0.12402 q -0.14883,0 -2.6293,-2.629297 v -0.396875 q 0.0496,-0.248047 0.24805,-0.248047 z m -0.24805,1.63711 h 0.12403 q 0.17363,0 2.62929,2.629297 v 0.496093 h -0.12402 q -0.14883,0 -2.6293,-2.629296 z m 0.24805,1.513086 2.50527,2.629297 v 0.37207 q 0,0.248047 -0.24804,0.248047 l -2.50528,-2.629297 v -0.37207 q 0.0496,-0.248047 0.24805,-0.248047 z m 0,1.488281 q 0.0248,0.198437 2.50527,2.654101 v 0.620118 h -0.12402 q -0.14883,0 -2.6293,-2.629297 v -0.372071 q 0.0496,-0.272851 0.24805,-0.272851 z m -0.24805,1.637109 h 0.12403 q 0.17363,0 2.62929,2.629297 v 0.520899 h -0.12402 q -0.14883,0 -2.6293,-2.654102 z m 0.24805,1.513086 2.50527,2.629297 v 0.37207 q 0,0.248047 -0.24804,0.248047 l -2.50528,-2.629297 v -0.37207 q 0.0496,-0.248047 0.24805,-0.248047 z m -0.24805,1.63711 h 0.12403 q 0.17363,0 2.62929,2.629296 v 0.496094 h -0.12402 q -0.14883,0 -2.6293,-2.629297 z m 0,1.488281 h 0.12403 q 0.17363,0 2.62929,2.629297 v 0.520898 h -0.12402 q -0.14883,0 -2.6293,-2.654101 z m 0.24805,1.513086 2.50527,2.629297 v 0.620117 h -0.12402 q -0.14883,0 -2.6293,-2.629297 v -0.37207 q 0.0496,-0.248047 0.24805,-0.248047 z m -0.24805,1.637109 h 0.12403 q 0.17363,0 2.62929,2.629297 v 0.496094 h -0.12402 q -0.14883,0 -2.6293,-2.629297 z m 0,1.488281 h 0.12403 q 0.17363,0 2.62929,2.654102 v 0.37207 q 0,0.248047 -0.24804,0.248047 l -2.50528,-2.629297 z m 0.24805,1.513086 2.50527,2.629297 v 0.620122 h -0.12402 q -0.14883,0 -2.6293,-2.629302 v -0.37207 q 0.0496,-0.248047 0.24805,-0.248047 z m -0.24805,1.63711 h 0.12403 q 0.17363,0 2.62929,2.629299 v 0.49609 h -0.12402 q -0.14883,0 -2.6293,-2.629296 z m 0,1.488279 h 0.12403 q 0.17363,0 2.62929,2.6541 v 0.37207 q 0,0.24805 -0.24804,0.24805 l -2.50528,-2.6293 z m 0.24805,1.51309 2.50527,2.62929 v 0.64493 h -0.12402 q -0.14883,0 -2.6293,-2.65411 v -0.37207 q 0.0496,-0.24804 0.24805,-0.24804 z m -0.24805,1.63711 h 0.12403 q 0.17363,0 2.62929,2.62929 v 0.4961 h -0.12402 q -0.14883,0 -2.6293,-2.6293 z m 0,1.51308 h 0.12403 q 0.19844,0.0248 1.76113,1.73633 v 0.12402 h -0.62012 q -0.17363,0 -1.26504,-1.24023 z m 0.24805,1.48828 0.12402,0.24805 v 0.12402 h -0.12402 q -0.24805,0 -0.24805,-0.24804 z m 8.40879,2.50528 h 0.12402 q 0.17364,0 2.6293,2.6541 v 0.37207 q 0,0.24805 -0.24805,0.24805 l -2.50527,-2.6293 z m 0.24805,1.51308 2.50527,2.6293 v 0.37207 q 0,0.24805 -0.24805,0.24805 l -2.50527,-2.6293 v -0.37207 q 0.0496,-0.24805 0.24805,-0.24805 z m -12.79922,1.63711 h 0.39687 q 0.14883,0 2.6293,2.6293 l -0.24805,0.12402 h -0.39687 q -0.14883,0 -2.6293,-2.62929 z m 1.51308,0 h 0.37207 q 0.17364,0 2.6293,2.6293 v 0.12402 h -0.62012 q -0.17363,0 -2.62929,-2.62929 z m 1.38907,0 h 0.49609 q 0.17363,0 2.6293,2.6293 v 0.12402 h -0.4961 q -0.17363,0 -2.62929,-2.62929 z m 1.48828,0 h 0.24805 q 0.71933,0 3.02617,2.6293 l -0.24805,0.12402 h -0.37207 q -0.17363,0 -2.6541,-2.62929 z m 1.76113,0 h 0.37207 q 0.17363,0 2.6541,2.6293 v 0.12402 h -0.64492 q -0.17363,0 -2.6293,-2.62929 z m 1.38906,0 h 0.4961 q 0.17363,0 2.62929,2.6293 v 0.12402 h -0.49609 q -0.17363,0 -2.6293,-2.62929 z m 1.76114,0 h 0.37207 q 0.17363,0 2.62929,2.6293 l -0.24804,0.12402 h -0.37207 q -0.17364,0 -2.65411,-2.62929 z m 1.48828,0 h 0.37207 q 0.17363,0 2.6541,2.6293 v 0.12402 h -0.64492 q -0.14883,0 -2.6293,-2.62929 z m 1.38906,0 h 0.49609 q 0.17364,0 2.6293,2.6293 l -0.24805,0.12402 h -0.24804 q -0.17364,0 -2.6293,-2.62929 z m -0.19844,-4.63847 h 0.0744 v 3.86953 q 0,0.27285 -0.24805,0.27285 h -12.42715 q -0.24805,0 -0.24805,-0.27285 V 79.568023 q 0.0496,-0.248047 0.24805,-0.248047 h 3.77031 q 0.24805,0.04961 0.24805,0.248047 v 27.706837 h 8.58242 z" />
      <path
         id="path1004"
         style="font-style:normal;font-variant:normal;font-weight:normal;font-stretch:normal;font-size:50.79999924px;font-family:'Sunset Boulevard';-inkscape-font-specification:'Sunset Boulevard, Normal';font-variant-ligatures:normal;font-variant-caps:normal;font-variant-numeric:normal;font-feature-settings:normal;text-align:start;writing-mode:lr-tb;text-anchor:start;stroke-width:0.26458332"
         d="m 149.36201,79.319976 h 12.20391 q 0.27285,0.04961 0.27285,0.248047 v 3.646289 q 0,0.248047 -0.27285,0.248047 h -8.16074 v 9.326562 h 6.02754 q 0.24804,0.04961 0.24804,0.248047 v 3.646289 q 0,0.248047 -0.24804,0.248047 h -6.02754 v 10.467576 h 8.80566 q 0.24805,0.0248 0.24805,0.24805 v 3.64629 q 0,0.24804 -0.24805,0.24804 h -12.84883 q -0.24804,0 -0.24804,-0.24804 V 79.568023 q 0.0496,-0.248047 0.24804,-0.248047 z m 13.09688,0.74414 h 0.12402 q 0.17364,0 2.50528,2.530079 v 0.124023 h -0.12403 q -0.14883,0 -2.50527,-2.505273 z m 0,1.016993 h 0.12402 q 0.17364,0 2.50528,2.530078 v 0.620117 h -0.12403 q -0.14883,0 -2.50527,-2.530078 z m 0,1.637109 h 0.12402 q 0.17364,0 2.50528,2.505273 v 0.520899 h -0.12403 q -0.14883,0 -2.50527,-2.530078 z m -8.30957,1.389062 h 0.49609 q 0.17364,0 2.53008,2.505274 v 0.124023 h -0.5209 q -0.14883,0 -2.50527,-2.505273 z m 1.51309,0 h 0.49609 q 0.17363,0 2.53008,2.505274 v 0.124023 h -0.5209 q -0.14883,0 -2.50527,-2.505273 z m 1.51308,0 h 0.62012 q 0.17363,0 2.53008,2.505274 v 0.124023 h -0.64493 q -0.14882,0 -2.50527,-2.505273 z m 1.63711,0 h 0.49609 q 0.17364,0 2.53008,2.505274 v 0.124023 h -0.5209 q -0.14882,0 -2.50527,-2.505273 z m 1.51309,0 h 0.62011 q 0.17364,0 2.38125,2.38125 h 0.12403 v 0.248047 h -0.62012 q -0.17363,0 -2.50527,-2.505273 z m 1.51308,0 h 0.62012 q 0.17363,0 2.50527,2.505274 v 0.124023 h -0.62011 q -0.17364,0 -2.50528,-2.505273 z m -7.68945,0.868164 2.50527,2.654102 v 0.37207 q 0,0.248047 -0.24804,0.248047 l -2.50528,-2.629297 v -0.396875 q 0.0248,-0.248047 0.24805,-0.248047 z m -0.24805,1.63711 h 0.12403 q 0.17363,0 2.62929,2.654101 v 0.496094 h -0.12402 q -0.14883,0 -2.6293,-2.629297 z m 0,1.513086 h 0.12403 q 0.17363,0 2.62929,2.654101 v 0.372071 q 0,0.248046 -0.24804,0.248046 l -2.50528,-2.75332 z m 0.24805,1.513086 2.25723,2.406054 v 0.124024 h -0.62012 q -0.14883,0 -1.88516,-1.909961 v -0.37207 q 0.0248,-0.248047 0.24805,-0.248047 z m -0.24805,1.637109 h 0.12403 q 0.17363,0 0.74414,0.768945 v 0.124024 h -0.4961 q -0.17363,0 -0.37207,-0.396875 z m 6.30039,3.150195 h 0.12403 q 0.14882,0 2.62929,2.629297 v 0.396875 q 0,0.248047 -0.24804,0.248047 0,-0.198438 -2.50528,-2.778125 z m 0.24805,1.513086 2.50527,2.629297 v 0.396875 q 0,0.248047 -0.24804,0.248047 l -2.50528,-2.654102 v -0.37207 q 0.0248,-0.248047 0.24805,-0.248047 z m -6.30039,1.63711 q 0.17363,0 2.50527,2.505274 v 0.39687 q 0,0.24805 -0.24804,0.24805 l -2.50528,-2.654101 v -0.248047 q 0.0248,-0.248046 0.24805,-0.248046 z m 1.01699,0 h 0.4961 q 0.17363,0 2.50527,2.505274 v 0.12402 h -0.4961 q -0.17363,0 -2.50527,-2.505271 z m 1.48828,0 h 0.5209 q 0.19844,0 2.6293,2.505274 v 0.12402 h -0.62012 q -0.17363,0 -2.53008,-2.505271 z m 1.63711,0 h 0.5209 q 0.14883,0 2.50527,2.505274 v 0.12402 h -0.62011 q -2.25723,-2.033982 -2.40606,-2.505271 z m 1.51309,0 h 0.5209 q 0.14882,0 2.50527,2.505274 v 0.12402 h -0.49609 q -0.17364,0 -2.53008,-2.505271 z m -5.65547,1.389062 2.50527,2.629292 v 0.64493 h -0.12402 q -0.14883,0 -2.6293,-2.654105 v -0.37207 q 0.0248,-0.248047 0.24805,-0.248047 z m -0.24805,1.637112 h 0.12403 q 0.17363,0 2.62929,2.62929 v 0.4961 h -0.12402 q -0.14883,0 -2.6293,-2.6293 z m 0,1.48828 h 0.12403 q 0.17363,0 2.62929,2.6541 v 0.37207 q 0,0.24805 -0.24804,0.24805 l -2.50528,-2.6293 z m 0.24805,1.51308 2.50527,2.65411 v 0.37207 q 0,0.24804 -0.24804,0.24804 l -2.50528,-2.62929 v -0.37207 q 0.0248,-0.27286 0.24805,-0.27286 z m -0.24805,1.63711 h 0.12403 q 0.17363,0 1.51308,1.51309 v 0.12402 h -0.49609 q -0.17363,0 -1.14102,-1.11621 z m 9.05371,2.90215 h 0.12403 q 0.17363,0 2.53007,2.53008 v 0.49609 h -0.12402 q -0.17363,0 -2.53008,-2.53007 z m 0,1.51309 h 0.12403 q 0.17363,0 2.53007,2.50527 v 0.5209 h -0.12402 q -0.17363,0 -2.53008,-2.53008 z m 0,1.51308 h 0.12403 q 0.17363,0 2.53007,2.50528 v 0.64492 h -0.12402 q -0.17363,0 -2.53008,-2.53008 z m -13.09687,0.99219 h 0.27285 q 0.14883,0 2.50527,2.53008 v 0.12402 h -0.24804 q -0.17364,0 -2.53008,-2.50527 z m 1.26504,0 h 0.49609 q 0.17363,0 2.53008,2.53008 v 0.12402 h -0.49609 q -0.17364,0 -2.53008,-2.50527 z m 1.51308,0 h 0.62012 l 2.53008,2.53008 v 0.12402 h -0.62012 q -0.17363,0 -2.53008,-2.50527 z m 1.51309,0 h 0.62012 q 0.17363,0 2.53007,2.53008 v 0.12402 h -0.64492 q -0.14883,0 -2.50527,-2.50527 z m 1.63711,0 h 0.49609 q 0.17364,0 2.53008,2.53008 v 0.12402 h -0.5209 q -0.14883,0 -2.50527,-2.50527 z m 1.51308,0 h 0.62012 q 0.17363,0 2.53008,2.53008 v 0.12402 h -0.64492 q -0.14883,0 -2.50528,-2.50527 z m 1.51309,0 h 0.62012 q 0.17363,0 2.53008,2.53008 v 0.12402 h -0.64493 q -0.14882,0 -2.50527,-2.50527 z m 1.63711,0 h 0.49609 q 0.17364,0 2.50528,2.53008 v 0.12402 h -0.4961 q -0.17363,0 -2.50527,-2.50527 z m 1.51309,0 h 0.62011 q 0.17364,0 2.50528,2.53008 v 0.12402 h -0.62012 q -0.17363,0 -2.50527,-2.50527 z" />
      <path
         id="path1006"
         style="font-style:normal;font-variant:normal;font-weight:normal;font-stretch:normal;font-size:50.79999924px;font-family:'Sunset Boulevard';-inkscape-font-specification:'Sunset Boulevard, Normal';font-variant-ligatures:normal;font-variant-caps:normal;font-variant-numeric:normal;font-feature-settings:normal;text-align:start;writing-mode:lr-tb;text-anchor:start;stroke-width:0.26458332"
         d="m 163.55029,79.319976 h 15.23008 q 0.24805,0.04961 0.24805,0.248047 v 3.646289 q 0,0.248047 -0.24805,0.248047 h -5.40742 v 27.830861 q 0,0.24804 -0.24805,0.24804 h -3.77031 q -0.27285,0 -0.27285,-0.24804 V 83.462359 h -5.53145 q -0.24804,0 -0.24804,-0.248047 v -3.646289 q 0.0496,-0.248047 0.24804,-0.248047 z m 16.12305,0.74414 h 0.12402 q 0.14883,0 2.50528,2.530079 v 0.124023 h -0.12403 q -0.17363,0 -2.50527,-2.505273 z m 0,1.141016 h 0.12402 q 0.14883,0 2.50528,2.530078 v 0.496094 h -0.12403 q -0.17363,0 -2.50527,-2.530078 z m 0,1.513086 h 0.12402 q 0.14883,0 2.50528,2.505273 v 0.644922 h -0.12403 q -0.17363,0 -2.50527,-2.530078 z m -14.60996,1.389062 h 0.62012 q 0.17363,0 2.53007,2.505274 l -0.24804,0.124023 h -0.37207 q -0.17364,0 -2.53008,-2.505273 z m 1.51308,0 h 0.62012 q 0.17363,0 1.26504,1.265039 v 0.620118 h -0.12402 q -0.17364,0 -1.76114,-1.761133 z m 1.63711,0 q 0.24805,0.02481 0.24805,0.248047 h -0.24805 z m 6.17637,0 h 0.62012 q 0.17363,0 2.50527,2.505274 v 0.124023 h -0.62012 q -0.17363,0 -2.50527,-2.505273 z m 1.48828,0 h 0.64492 q 0.17364,0 2.50528,2.505274 v 0.124023 h -0.62012 q -0.17363,0 -2.53008,-2.505273 z m 1.63711,0 h 0.5209 q 0.14883,0 2.50527,2.505274 v 0.124023 h -0.49609 q -0.17363,0 -2.53008,-2.505273 z m 1.51309,0 h 0.64492 q 0.14883,0 2.50527,2.505274 v 0.124023 h -0.62011 q -0.17364,0 -2.53008,-2.505273 z m -5.03535,0.744141 h 0.12402 q 0.17363,0 2.53008,2.530078 v 0.496094 h -0.12403 q -0.17363,0 -2.53007,-2.505274 z m 0,1.513086 h 0.12402 q 0.17363,0 2.53008,2.530078 v 0.620117 h -0.12403 q -0.17363,0 -2.53007,-2.505273 z m 0,1.513086 h 0.12402 q 0.17363,0 2.53008,2.530078 v 0.620117 h -0.12403 q -0.17363,0 -2.53007,-2.530078 z m 0,1.637109 h 0.12402 q 0.17363,0 2.53008,2.530078 v 0.496094 h -0.12403 q -0.17363,0 -2.53007,-2.530078 z m 0,1.513086 h 0.12402 q 0.17363,0 2.53008,2.505274 v 0.644921 h -0.12403 q -0.17363,0 -2.53007,-2.530078 z m 0,1.513086 h 0.12402 q 0.17363,0 2.53008,2.505273 v 0.644922 h -0.12403 q -0.17363,0 -2.53007,-2.530078 z m 0,1.637109 h 0.12402 q 0.17363,0 2.53008,2.505274 v 0.520898 h -0.12403 q -0.17363,0 -2.53007,-2.530078 z m 0,1.513086 h 0.12402 q 0.17363,0 2.53008,2.505274 v 0.644922 h -0.12403 q -0.17363,0 -2.53007,-2.530079 z m 0,1.513086 h 0.12402 q 0.12402,0 2.53008,2.505274 v 0.620121 h -0.12403 q -0.17363,0 -2.53007,-2.505278 z m 0,1.63711 h 0.12402 q 0.17363,0 2.53008,2.505275 v 0.49609 h -0.12403 q -0.17363,0 -2.53007,-2.505272 z m 0,1.488285 h 0.12402 q 0.17363,0 2.53008,2.53007 v 0.62012 h -0.12403 q -0.17363,0 -2.53007,-2.50527 z m 0,1.63711 h 0.12402 q 0.17363,0 2.53008,2.53007 v 0.4961 h -0.12403 q -0.17363,0 -2.53007,-2.50528 z m 0,1.51308 h 0.12402 q 0.17363,0 2.53008,2.53008 v 0.49609 h -0.12403 q -0.17363,0 -2.53007,-2.50527 z m 0,1.51309 h 0.12402 q 0.17363,0 2.53008,2.53008 v 0.62011 h -0.12403 q -0.17363,0 -2.53007,-2.50527 z m 0,1.63711 h 0.12402 q 0.17363,0 2.53008,2.53007 v 0.4961 h -0.12403 q -0.17363,0 -2.53007,-2.53008 z m 0,1.51308 h 0.12402 q 0.17363,0 2.53008,2.53008 v 0.37207 q 0,0.24805 -0.24805,0.24805 l -2.40605,-2.53008 z m 0,1.51309 h 0.12402 q 0.17363,0 2.53008,2.50527 v 0.64492 h -0.12403 q -0.17363,0 -2.53007,-2.53007 z m 0,1.63711 h 0.12402 q 0.17363,0 2.53008,2.50527 v 0.5209 h -0.12403 q -0.17363,0 -2.53007,-2.53008 z m -4.14239,0.86816 h 0.4961 q 0.17363,0 2.53008,2.53008 v 0.12402 h -0.5209 q -0.14883,0 -2.50528,-2.50527 z m 1.51309,0 h 0.62012 q 0.17363,0 2.53007,2.53008 v 0.12402 h -0.64492 q -0.14883,0 -2.50527,-2.50527 z m 1.51309,0 h 0.62011 q 0.17364,0 2.53008,2.53008 v 0.12402 h -0.64492 q -0.17363,0 -2.50527,-2.50527 z" />
      <path
         id="path1008"
         style="font-style:normal;font-variant:normal;font-weight:normal;font-stretch:normal;font-size:50.79999924px;font-family:'Sunset Boulevard';-inkscape-font-specification:'Sunset Boulevard, Normal';font-variant-ligatures:normal;font-variant-caps:normal;font-variant-numeric:normal;font-feature-settings:normal;text-align:start;writing-mode:lr-tb;text-anchor:start;stroke-width:0.26458332"
         d="m 186.42021,79.319976 h 3.52227 q 3.52227,0 4.7625,3.249414 0.24805,0.496094 0.24805,1.389062 v 22.944338 q 0,3.59668 -4.14239,4.66328 h -5.01054 q -3.29903,0 -4.63848,-3.64629 V 83.462359 q 0,-2.728516 3.64629,-4.01836 0.81855,-0.124023 1.6123,-0.124023 z m 8.90489,3.398242 h 0.12402 q 2.25723,1.909961 2.25723,2.75332 -2.38125,-2.058789 -2.38125,-2.75332 z m -9.89707,2.108398 v 21.208004 q 0.24804,1.38907 2.75332,1.38907 2.50527,0 2.50527,-1.63711 V 85.223491 q 0,-1.190625 -0.86816,-1.637109 h -3.1502 q -1.24023,0.198437 -1.24023,1.240234 z m 1.51308,-0.74414 h 0.4961 q 0.17363,0 2.62929,2.629297 l -0.24804,0.124023 h -0.24805 q -2.6293,-2.406055 -2.6293,-2.505273 z m 1.48828,0 h 0.5209 q 1.0666,0.768945 1.11621,1.016992 v 0.620117 h -0.12402 q -0.17363,0 -1.51309,-1.513086 z m 7.29258,0 2.50528,2.629297 v 0.644921 h -0.12403 q -0.17363,0 -2.6541,-2.654101 v -0.37207 q 0.0496,-0.248047 0.27285,-0.248047 z m -9.67383,0.37207 h 0.24805 q 0.17363,0 2.6541,2.654102 v 0.248046 q 0,0.248047 -0.27285,0.248047 -0.14883,0 -2.75332,-2.778125 0.12402,-0.223242 0.12402,-0.37207 z m 0.12403,1.265039 2.50527,2.629297 v 0.620117 h -0.12402 q -0.14883,0 -2.6293,-2.629297 v -0.37207 q 0.0496,-0.248047 0.24805,-0.248047 z m 9.27695,0 h 0.14883 q 0.14883,0 2.6293,2.629297 v 0.496094 h -0.12403 q -0.17363,0 -2.6541,-2.629297 z m 0.27285,1.513086 2.50528,2.629297 v 0.37207 q 0,0.248047 -0.24805,0.248047 l -2.53008,-2.629297 v -0.37207 q 0.0496,-0.248047 0.27285,-0.248047 z m -9.79785,0.124023 h 0.12402 q 0.17364,0 2.6293,2.629297 v 0.496094 h -0.12402 q -0.14883,0 -2.6293,-2.629297 z m 9.79785,1.364258 2.50528,2.629297 v 0.644922 h -0.12403 q -0.17363,0 -2.6541,-2.629297 v -0.396875 q 0.0496,-0.248047 0.27285,-0.248047 z m -9.5498,0.124024 2.50527,2.629297 v 0.396875 q 0,0.248046 -0.24805,0.248046 l -2.50527,-2.629296 v -0.396875 q 0.0496,-0.248047 0.24805,-0.248047 z m 0,1.513086 2.50527,2.629296 v 0.620118 h -0.12402 q -0.14883,0 -2.6293,-2.629297 v -0.372071 q 0.0496,-0.248046 0.24805,-0.248046 z m 9.27695,0 h 0.14883 q 0.14883,0 2.6293,2.629296 v 0.496094 h -0.12403 q -0.17363,0 -2.6541,-2.629297 z m 0.27285,1.513086 2.50528,2.629296 v 0.372071 q 0,0.248047 -0.24805,0.248047 l -2.53008,-2.629297 v -0.372071 q 0.0496,-0.248046 0.27285,-0.248046 z m -9.79785,0.124023 h 0.12402 q 0.17364,0 2.6293,2.629297 v 0.496094 h -0.12402 q -0.14883,0 -2.6293,-2.629297 z m 9.79785,1.364258 2.50528,2.654101 v 0.620117 h -0.12403 q -0.17363,0 -2.6541,-2.629296 v -0.396875 q 0.0496,-0.248047 0.27285,-0.248047 z m -9.5498,0.124023 2.50527,2.654102 v 0.620117 h -0.12402 q -0.14883,0 -2.6293,-2.629297 v -0.37207 q 0.0496,-0.272852 0.24805,-0.272852 z m 9.27695,1.513086 h 0.14883 q 0.14883,0 2.6293,2.629297 v 0.496094 h -0.12403 q -0.17363,0 -2.6541,-2.629297 z m -9.525,0.124024 h 0.12402 q 0.17364,0 2.6293,2.629296 v 0.520899 h -0.12402 q -0.14883,0 -2.6293,-2.654102 z m 9.79785,1.389062 2.50528,2.629297 v 0.620117 h -0.12403 q -0.17363,0 -2.6541,-2.629297 v -0.37207 q 0.0496,-0.248047 0.27285,-0.248047 z m -9.79785,0.124023 h 0.12402 q 0.17364,0 2.6293,2.629297 v 0.496094 h -0.12402 q -0.14883,0 -2.6293,-2.629297 z m 9.79785,1.364258 2.50528,2.654105 v 0.62011 h -0.12403 q -0.17363,0 -2.6541,-2.629293 v -0.37207 q 0.0496,-0.272852 0.27285,-0.272852 z m -9.5498,0.124024 2.50527,2.654101 v 0.62012 h -0.12402 q -0.14883,0 -2.6293,-2.629299 V 98.39478 q 0.0496,-0.272851 0.24805,-0.272851 z m 9.27695,1.513086 h 0.14883 q 0.14883,0 2.6293,2.629295 v 0.5209 h -0.12403 q -0.17363,0 -2.6541,-2.6541 z m -9.525,0.124023 h 0.12402 q 0.17364,0 2.6293,2.629292 v 0.5209 h -0.12402 q -0.14883,0 -2.6293,-2.6541 z m 9.79785,1.389062 2.50528,2.6293 v 0.62011 h -0.12403 q -0.17363,0 -2.6541,-2.62929 v -0.37207 q 0.0496,-0.24805 0.27285,-0.24805 z m -9.79785,0.12402 h 0.12402 q 0.17364,0 2.6293,2.6293 v 0.49609 h -0.12402 q -2.6293,-2.43085 -2.6293,-2.62929 z m 0.24805,1.51309 2.50527,2.6293 v 0.62011 h -0.12402 q -0.14883,0 -2.6293,-2.62929 v -0.37207 q 0.0496,-0.24805 0.24805,-0.24805 z m 9.27695,0 h 0.14883 q 0.14883,0 2.6293,2.6293 v 0.49609 h -0.12403 q -0.17363,0 -2.6541,-2.6293 z m 0,1.48828 h 0.14883 q 0.14883,0 2.6293,2.6293 v 0.5209 h -0.12403 q -0.17363,0 -2.6541,-2.65411 z m -9.525,0.12402 h 0.12402 q 0.17364,0 2.25723,2.25723 v 0.12402 h -0.49609 q -0.14883,0 -1.88516,-1.86035 z m 9.79785,1.38907 2.50528,2.62929 v 0.62012 h -0.12403 q -0.17363,0 -2.6541,-2.6293 v -0.37207 q 0.0496,-0.24804 0.27285,-0.24804 z m -9.5498,0.12402 0.64492,0.74414 v 0.12402 h -0.27285 q -0.44649,-0.22324 -0.62012,-0.74414 z m 9.27695,1.51309 h 0.14883 q 0.14883,0 2.6293,2.62929 v 0.4961 h -0.12403 q -0.17363,0 -2.6541,-2.6293 z m -0.12402,1.24023 q 0.17363,0 2.6541,2.6293 v 0.5209 h -0.27285 q -0.0744,0 -2.6293,-2.77813 v -0.12402 q 0.0496,-0.24805 0.24805,-0.24805 z m -0.4961,1.01699 q 0.17364,0 2.75332,2.75332 -0.12402,0.24805 -0.12402,0.37207 h -0.24805 q -0.17363,0 -2.75332,-2.75332 0,-0.17363 0.37207,-0.37207 z m -0.74414,0.86817 q 0.17364,0 2.75332,2.75332 v 0.12402 q 0,0.24805 -0.24804,0.24805 -0.17364,0 -2.75332,-2.75332 v -0.12403 q 0.0248,-0.24804 0.24804,-0.24804 z m -1.01699,0.74414 h 0.24805 q 0.17363,0 2.6541,2.6541 v 0.24805 l -0.5209,0.12402 -2.6293,-2.75332 q 0.0496,-0.27285 0.24805,-0.27285 z m -1.24023,0.5209 h 0.49609 q 0.17363,0 2.6293,2.62929 0,0.24805 -0.24805,0.24805 h -0.24805 q -0.17363,0 -2.62929,-2.6293 z m -7.4166,0.12402 h 0.27285 q 0.14882,0 2.25722,2.25723 h -0.27285 q -0.57051,-0.27286 -2.25722,-2.13321 z m 1.38906,0.12402 h 0.49609 q 0.17363,0 2.6541,2.6293 v 0.12402 h -0.5209 q -0.14882,0 -2.62929,-2.62929 z m 1.76113,0 h 0.37207 q 0.17363,0 2.6293,2.6293 l -0.24805,0.12402 h -0.37207 q -0.17363,0 -2.6293,-2.62929 z m 1.51309,0 h 0.37207 q 0.14882,0 2.62929,2.6293 v 0.12402 h -0.62011 q -0.17364,0 -2.65411,-2.62929 z m 1.36425,0 h 0.4961 q 0.17363,0 2.6541,2.6293 v 0.12402 h -0.5209 q -0.14883,0 -2.6293,-2.62929 z" />
      <path
         id="path1010"
         style="font-style:normal;font-variant:normal;font-weight:normal;font-stretch:normal;font-size:50.79999924px;font-family:'Sunset Boulevard';-inkscape-font-specification:'Sunset Boulevard, Normal';font-variant-ligatures:normal;font-variant-caps:normal;font-variant-numeric:normal;font-feature-settings:normal;text-align:start;writing-mode:lr-tb;text-anchor:start;stroke-width:0.26458332"
         d="m 200.16202,79.270366 h 4.04316 q 0.29766,0 2.25723,7.689453 h 0.12402 q 1.98438,-7.366992 2.40606,-7.689453 h 4.16718 v 0.124024 q -4.29121,15.378906 -4.29121,15.750976 l 4.66328,16.271874 -0.24804,0.12402 h -4.04317 q -0.32246,0 -2.6541,-8.70644 h -0.12402 q -2.18281,8.70644 -2.6293,8.70644 h -4.16719 v -0.12402 q 0.12403,-0.79375 4.66329,-16.395897 L 199.91397,79.39439 Z m 13.61777,0.744141 q 0.17363,0 2.6541,2.654102 v 0.248046 q 0,0.272852 -0.24804,0.272852 l -2.65411,-2.778125 v -0.124023 q 0.0496,-0.272852 0.24805,-0.272852 z m -8.30957,1.141016 h 0.12402 q 0.17364,0 1.63711,1.637109 -0.12402,0.248047 -0.12402,0.396875 h -0.12402 q -1.51309,-1.21543 -1.51309,-2.033984 z m 8.06152,0 2.65411,2.778125 q -0.19844,0.496093 -0.39688,0.496093 l -2.6293,-2.75332 q 0.17364,-0.520898 0.37207,-0.520898 z m -0.37207,1.141015 q 2.6293,2.654102 2.6293,2.902149 -0.12402,0.248047 -0.12402,0.37207 h -0.12403 q -0.17363,0 -2.62929,-2.654102 v -0.37207 q 0.0248,-0.248047 0.24804,-0.248047 z m -7.06933,1.016992 h 0.12402 q 0.17363,0 0.64492,0.620118 v 0.124023 q 0,0.173633 -0.39687,0.37207 -0.37207,-0.768945 -0.37207,-1.116211 z m 6.42441,0.372071 h 0.24805 q 0.17363,0 2.6541,2.654101 v 0.372071 h -0.24805 q -0.17363,0 -2.6541,-2.654102 z m -0.24804,1.141015 h 0.12402 q 0.17363,0 2.6541,2.629297 v 0.520899 h -0.24805 q -2.6541,-2.455664 -2.6541,-2.778125 0.12403,-0.248047 0.12403,-0.372071 z m -0.12403,1.116211 2.6541,2.778125 q -0.19843,0.496094 -0.37207,0.496094 l -2.6541,-2.75332 q 0.17363,-0.520899 0.37207,-0.520899 z m -0.37207,1.265039 2.6541,2.778125 v 0.124024 q 0,0.248047 -0.27285,0.248047 -0.14883,0 -2.6293,-2.654102 v -0.248047 q 0.0248,-0.248047 0.24805,-0.248047 z m -0.37207,1.265039 q 0.14883,0 2.6293,2.654102 v 0.248047 q 0,0.248047 -0.24805,0.248047 -0.17363,0 -2.6541,-2.654102 v -0.248047 q 0.0496,-0.248047 0.27285,-0.248047 z m -0.27285,1.141016 2.6541,2.75332 q -0.17363,0.520899 -0.37207,0.520899 l -2.6541,-2.778125 v -0.124024 q 0,-0.173633 0.37207,-0.37207 z m -0.62012,1.265039 h 0.12403 q 0.17363,0 2.77812,2.75332 -0.12402,0.248047 -0.12402,0.396875 h -0.12403 q -0.17363,0 -2.6541,-2.654101 z m -0.37207,1.240234 h 0.24805 q 0.17363,0 2.6541,2.654102 v 0.248047 q 0,0.248047 -0.27285,0.248047 -0.14883,0 -2.6293,-2.629297 z m -0.12402,1.141016 q 2.6293,2.356445 2.6293,3.026172 v 0.124023 h -0.24805 q -0.17363,0 -2.6293,-2.654101 v -0.248047 q 0.0248,-0.248047 0.24805,-0.248047 z m -0.5209,1.265039 h 0.12402 q 0.17364,0 2.65411,2.654102 v 0.496093 h -0.12403 q -0.17363,0 -2.77812,-2.778125 0.12402,-0.248047 0.12402,-0.37207 z m 0.39688,1.761133 q 2.50527,2.108398 2.50527,3.150195 h -0.12402 q -2.38125,-1.95957 -2.38125,-3.026172 z m 0.62011,2.257226 q 2.53008,2.158012 2.53008,3.026172 h -0.12402 q -2.40606,-1.95957 -2.40606,-3.026172 z m 0.62012,2.158012 q 2.53008,2.18281 2.53008,3.02617 h -0.12403 q -2.40605,-2.05879 -2.40605,-2.77813 z m 0.5209,2.1332 h 0.12402 q 2.50527,2.1084 2.50527,3.15019 h -0.12402 q -2.50527,-2.1332 -2.50527,-3.15019 z m 0.74414,2.28203 q 2.53008,2.18281 2.53008,3.02617 h -0.12403 q -2.40605,-2.05879 -2.40605,-2.77812 z m -5.8043,0.24805 q 0.39688,0.5457 0.39688,1.14101 h -0.12403 q -0.17363,0 -0.64492,-0.64492 0.19844,-0.49609 0.37207,-0.49609 z m -0.62012,1.26504 h 0.24805 q 1.38906,1.01699 1.38906,2.00918 h -0.12402 q -0.17363,0 -1.51309,-1.51309 z m 6.94532,0.62011 h 0.12402 q 2.50527,2.1084 2.50527,3.1502 h -0.12402 q -2.50527,-2.25723 -2.50527,-3.1502 z m -7.06934,0.64493 q 2.40606,2.00918 2.40606,2.87734 h -0.14883 q -0.14883,0 -2.50528,-2.50527 v -0.12403 q 0.0248,-0.24804 0.24805,-0.24804 z m -0.24805,1.11621 2.65411,2.77812 q -0.19844,0.4961 -0.39688,0.4961 l -2.6293,-2.75333 q 0.17364,-0.52089 0.37207,-0.52089 z m 7.9375,0.37207 h 0.12403 q 2.53008,2.158 2.53008,3.175 h -0.12403 q -2.53008,-2.1084 -2.53008,-3.175 z m -8.58242,0.89297 h 0.27285 q 2.6293,2.43085 2.6293,2.77812 -0.12402,0.24805 -0.12402,0.37207 h -0.12403 q -0.17363,0 -2.6541,-2.6541 z m -0.37207,1.26503 h 0.24805 q 0.17363,0 2.6541,2.65411 v 0.37207 h -0.24805 q -0.17363,0 -2.6541,-2.65411 z m 9.57461,0.12403 h 0.12402 q 2.40606,2.05879 2.40606,2.77812 v 0.24805 q -2.53008,-2.1332 -2.53008,-3.02617 z m -13.7418,0.49609 h 0.39688 q 0.14883,0 2.50527,2.53008 v 0.12402 h -0.37207 q -0.17363,0 -2.53008,-2.53007 z m 1.38907,0 h 0.64492 q 0.17363,0 2.50527,2.53008 v 0.12402 h -0.62011 q -0.17364,0 -2.53008,-2.53007 z m 1.51308,0 h 0.64492 q 0.14883,0 2.50528,2.53008 v 0.12402 h -0.62012 q -0.17363,0 -2.53008,-2.53007 z m 6.57325,0 h 0.24804 q 0.14883,0 2.50528,2.53008 v 0.12402 h -0.24805 q -0.14883,0 -2.50527,-2.53007 z m 1.24023,0 h 0.64492 q 0.17363,0 2.50527,2.53008 v 0.12402 h -0.62011 q -0.17364,0 -2.53008,-2.53007 z m 1.51309,0 h 0.64492 q 0.17363,0 2.50527,2.53008 v 0.12402 h -0.62012 q -0.17363,0 -2.53007,-2.53007 z" />
    </g>
    <g
       transform="matrix(0.00540712,-0.09447072,0.09447072,0.00540712,38.338313,114.97099)"
       id="g958">
      <g
         id="g847">
	<g
   id="g845">
		<path
   d="M 378.473,104.189 350.125,84.563 c -3.791,-2.623 -8.991,-1.678 -11.616,2.112 -2.625,3.791 -1.678,8.991 2.112,11.616 l 28.348,19.626 c 3.754,2.599 9.018,1.638 11.615,-2.111 2.624,-3.793 1.679,-8.993 -2.111,-11.617 z"
   id="path843" />

	</g>

</g>
      <g
         id="g853">
	<g
   id="g851">
		<path
   d="m 435.17,143.439 -28.348,-19.625 c -3.791,-2.625 -8.99,-1.679 -11.616,2.111 -2.626,3.791 -1.681,8.991 2.11,11.616 0,0 28.292,19.586 28.348,19.625 3.611,2.5 8.978,1.699 11.616,-2.111 2.625,-3.79 1.68,-8.991 -2.11,-11.616 z"
   id="path849" />

	</g>

</g>
      <g
         id="g859">
	<g
   id="g857">
		<path
   d="m 167.004,134.473 -33.566,-7.877 c -4.487,-1.052 -8.98,1.731 -10.035,6.22 -1.053,4.489 1.732,8.981 6.22,10.035 l 33.566,7.877 c 0.642,0.15 1.282,0.223 1.916,0.223 3.787,0 7.216,-2.597 8.12,-6.443 1.052,-4.49 -1.733,-8.983 -6.221,-10.035 z"
   id="path855" />

	</g>

</g>
      <g
         id="g865">
	<g
   id="g863">
		<path
   d="m 234.138,150.227 -33.566,-7.877 c -4.488,-1.052 -8.98,1.731 -10.035,6.22 -1.053,4.489 1.732,8.981 6.22,10.034 l 33.566,7.877 c 0.642,0.15 1.282,0.223 1.916,0.223 3.787,0 7.216,-2.596 8.12,-6.442 1.052,-4.49 -1.733,-8.982 -6.221,-10.035 z"
   id="path861" />

	</g>

</g>
      <g
         id="g871">
	<g
   id="g869">
		<path
   d="m 247.23,189.779 -76.055,-17.847 c -4.487,-1.052 -8.98,1.731 -10.035,6.22 -1.053,4.489 1.732,8.981 6.22,10.034 l 67.928,15.94 -54.804,233.553 -126.857,-29.768 54.803,-233.553 25.824,6.059 c 4.489,1.053 8.98,-1.732 10.034,-6.22 1.054,-4.488 -1.732,-8.981 -6.221,-10.034 l -33.95,-7.966 c -4.478,-1.052 -8.979,1.731 -10.034,6.22 L 35.465,412.224 c -1.053,4.489 1.732,8.981 6.22,10.034 l 143.11,33.582 c 0.63,0.148 1.271,0.22 1.908,0.22 1.542,0 3.066,-0.427 4.398,-1.252 1.882,-1.167 3.223,-3.033 3.73,-5.188 L 253.45,199.813 c 1.052,-4.489 -1.733,-8.981 -6.22,-10.034 z"
   id="path867" />

	</g>

</g>
      <g
         id="g877">
	<g
   id="g875">
		<path
   d="m 204.405,283.961 c -1.401,-3.335 -4.786,-5.386 -8.394,-5.084 l -31.233,2.619 -12.142,-28.894 c -1.4,-3.335 -4.794,-5.387 -8.394,-5.084 -3.603,0.302 -6.604,2.891 -7.43,6.412 l -7.16,30.513 -31.233,2.62 c -3.603,0.302 -6.604,2.891 -7.43,6.411 -0.826,3.521 0.709,7.174 3.802,9.047 l 26.807,16.238 -7.16,30.514 c -0.826,3.521 0.709,7.174 3.802,9.047 1.337,0.81 2.834,1.208 4.323,1.208 1.958,0 3.902,-0.687 5.456,-2.028 l 23.727,-20.477 26.808,16.239 c 3.091,1.873 7.04,1.543 9.779,-0.82 2.738,-2.363 3.642,-6.22 2.242,-9.553 l -12.142,-28.895 23.728,-20.477 c 2.742,-2.365 3.645,-6.222 2.244,-9.556 z m -43.711,30.908 4.539,10.801 c 0,0 -10.02,-6.069 -10.022,-6.071 -6.933,-4.2 -13.896,4.373 -18.647,8.474 l 2.676,-11.404 c 0.826,-3.521 -0.709,-7.174 -3.802,-9.047 l -10.02,-6.071 c 0,0 11.658,-0.977 11.674,-0.978 8.105,-0.68 8.676,-11.727 10.105,-17.817 0,0 4.528,10.775 4.538,10.799 3.159,7.516 13.816,4.63 20.068,4.106 -4.815,4.158 -14.348,9.5 -11.109,17.208 z"
   id="path873" />

	</g>

</g>
      <g
         id="g883">
	<g
   id="g881">
		<path
   d="m 508.405,127.564 c -7.115,-4.925 -9.523,-14.443 -5.604,-22.14 1.896,-3.722 0.747,-8.273 -2.687,-10.651 L 457.417,65.214 c -3.436,-2.377 -8.097,-1.851 -10.917,1.233 -3.271,3.583 -7.951,5.638 -12.836,5.638 -3.531,0 -6.939,-1.067 -9.858,-3.09 -7.115,-4.925 -9.523,-14.443 -5.604,-22.14 1.896,-3.722 0.747,-8.273 -2.687,-10.651 L 372.821,6.645 c -3.436,-2.377 -8.099,-1.851 -10.916,1.233 -3.272,3.583 -7.953,5.636 -12.837,5.638 -3.531,0 -6.939,-1.067 -9.859,-3.09 -3.788,-2.623 -8.99,-1.679 -11.615,2.111 l -48.265,69.714 c -0.778,-0.499 -1.647,-0.88 -2.591,-1.102 L 226.181,69.287 c -4.066,-0.955 -8.213,1.245 -9.705,5.147 -3.051,7.981 -11.885,12.632 -20.184,10.684 -8.422,-1.977 -14.151,-9.95 -13.324,-18.548 0.4,-4.158 -2.336,-7.972 -6.403,-8.927 L 126.009,45.78 c -4.065,-0.955 -8.212,1.245 -9.705,5.147 -3.05,7.972 -11.892,12.631 -20.184,10.685 -4.483,-1.053 -8.979,1.732 -10.034,6.22 0,0 -12.5,53.268 -12.511,53.316 L 0.223,433.747 c -1.053,4.489 1.732,8.981 6.22,10.034 8.424,1.977 14.152,9.951 13.325,18.548 -0.4,4.158 2.336,7.972 6.402,8.927 l 50.555,11.863 c 4.074,0.955 8.213,-1.244 9.705,-5.146 7.029,-18.385 35.387,-11.661 33.51,7.863 -0.4,4.158 2.336,7.972 6.403,8.927 l 50.555,11.863 c 4.017,0.939 8.23,-1.289 9.705,-5.148 2.549,-6.668 9.057,-11.149 16.195,-11.149 3.682,0 6.845,1.572 10.295,-0.565 1.881,-1.167 3.223,-3.033 3.73,-5.189 l 10.978,-46.782 c 0,0 23.539,16.296 23.547,16.302 3.319,2.298 8.107,1.841 10.917,-1.233 3.271,-3.583 7.951,-5.636 12.835,-5.636 3.531,0 6.94,1.069 9.86,3.09 3.791,2.623 8.99,1.677 11.615,-2.113 L 510.515,139.18 c 2.625,-3.79 1.68,-8.992 -2.11,-11.616 z M 226.923,368.429 c 0,0 -12.581,53.615 -12.582,53.619 l -12.106,51.591 c -11.276,0.189 -21.692,6.063 -27.813,15.258 l -37.974,-8.911 c -1.744,-13.841 -11.972,-25.654 -26.021,-28.95 -13.723,-3.22 -28.369,2.629 -36.177,14.356 L 36.277,456.481 C 34.879,445.392 28.036,435.603 18.144,430.455 l 69.784,-297.387 8.128,1.907 c 0.641,0.15 1.281,0.223 1.914,0.223 3.787,0 7.216,-2.597 8.12,-6.443 1.053,-4.489 -1.732,-8.981 -6.221,-10.034 l -8.126,-1.907 8.927,-38.043 c 11.276,-0.189 21.691,-6.063 27.813,-15.258 l 37.974,8.911 c 1.744,13.841 11.971,25.654 26.02,28.952 13.721,3.219 28.372,-2.63 36.177,-14.355 l 37.974,8.91 c 0.108,0.027 0.349,2.19 0.397,2.429 0.496,2.459 1.294,4.936 2.34,7.25 3.139,6.953 8.614,12.832 15.395,16.351 l -8.929,38.052 -8.128,-1.907 c -4.479,-1.052 -8.979,1.731 -10.034,6.22 -1.053,4.489 1.732,8.981 6.221,10.034 l 8.126,1.907 -13.276,56.578 c 0,0 -1.45,6.18 -1.451,6.184 l -9.748,41.54 c -0.001,-0.003 -20.618,87.857 -20.618,87.86 z m 243.459,-200.609 -6.864,-4.753 c -3.789,-2.625 -8.991,-1.678 -11.615,2.111 -2.625,3.791 -1.68,8.991 2.112,11.616 l 6.863,4.752 -173.869,251.135 c -3.784,-1.42 -7.806,-2.154 -11.913,-2.154 -7.047,0 -13.882,2.192 -19.562,6.16 l -23.637,-16.364 8.483,-36.15 36.92,25.56 c 3.75,2.594 9.019,1.638 11.615,-2.112 L 396.268,252.56 c 2.625,-3.791 1.68,-8.991 -2.11,-11.616 -3.791,-2.625 -8.991,-1.679 -11.616,2.111 l -102.603,148.199 -35.461,-24.551 16.277,-69.365 29.321,-10.271 18.995,24.93 c 1.611,2.114 4.087,3.289 6.642,3.289 0.922,0 1.854,-0.152 2.759,-0.47 3.413,-1.195 5.669,-4.452 5.586,-8.069 l -0.715,-31.333 29.58,-10.361 c 3.413,-1.195 5.669,-4.452 5.586,-8.068 -0.082,-3.615 -2.483,-6.767 -5.948,-7.806 l -30.021,-9.005 -0.715,-31.335 c -0.082,-3.616 -2.483,-6.767 -5.948,-7.806 -3.465,-1.039 -7.203,0.272 -9.262,3.245 l -17.838,25.768 -11.43,-3.428 21.491,-91.583 10.519,-15.194 107.133,74.171 -14.526,20.984 c -2.625,3.791 -1.68,8.991 2.11,11.616 3.791,2.625 8.99,1.678 11.616,-2.111 0,0 19.213,-27.752 19.278,-27.845 2.582,-3.73 1.603,-9.044 -2.11,-11.616 0,0 -120.644,-83.524 -120.861,-83.675 -3.752,-2.598 -9.023,-1.635 -11.616,2.111 l -3.623,5.234 c -0.1,-0.027 -0.196,-0.062 -0.297,-0.086 -4.116,-0.969 -7.77,-3.448 -10.204,-6.902 -0.018,-0.025 -0.033,-0.052 -0.051,-0.078 L 305.407,73.91 c 0,0 6.862,4.75 6.862,4.752 3.646,2.524 8.99,1.68 11.616,-2.112 2.625,-3.79 1.68,-8.991 -2.11,-11.616 l -6.863,-4.752 22.241,-32.125 c 3.784,1.42 7.807,2.154 11.914,2.154 7.047,0 13.881,-2.192 19.561,-6.161 l 32.065,22.2 c -3.446,13.518 1.741,28.256 13.607,36.471 11.601,8.033 27.364,7.974 38.927,-0.102 l 32.065,22.2 c -2.76,10.83 0.021,22.446 7.338,30.86 z M 306.783,281.445 c 0,0 -7.098,-9.314 -7.101,-9.32 -2.164,-2.839 -6.034,-4 -9.4,-2.819 l -11.056,3.872 c 3.639,-5.257 11.529,-12.768 6.445,-19.443 l -7.1,-9.32 c 0,0 11.211,3.363 11.223,3.366 7.824,2.346 12.336,-7.687 15.929,-12.876 0,0 0.267,11.701 0.267,11.712 0.186,8.144 11.163,9.37 17.169,11.172 l -11.057,3.872 c -3.413,1.195 -5.669,4.453 -5.586,8.07 z"
   id="path879" />

	</g>

</g>
      <g
         id="g885">
</g>
      <g
         id="g887">
</g>
      <g
         id="g889">
</g>
      <g
         id="g891">
</g>
      <g
         id="g893">
</g>
      <g
         id="g895">
</g>
      <g
         id="g897">
</g>
      <g
         id="g899">
</g>
      <g
         id="g901">
</g>
      <g
         id="g903">
</g>
      <g
         id="g905">
</g>
      <g
         id="g907">
</g>
      <g
         id="g909">
</g>
      <g
         id="g911">
</g>
      <g
         id="g913">
</g>
    </g>
  </g>
</svg>
